
        <svg xmlns="http://www.w3.org/2000/svg" xmlns:xlink="http://www.w3.org/1999/xlink" version="1.1" width="3193.548387096774" height="985.5073821765704" viewBox="0 0 3193.548387096774 985.5073821765704">
			
			<g transform="scale(9.67741935483871) translate(10, 10)">
				<defs id="SvgjsDefs1597"/><g id="SvgjsG1598" featureKey="nameFeature-0" transform="matrix(2.9093981512807816,0,0,2.9093981512807816,-3.9672553645902138,-34.69574162324837)" fill="#fff"><path d="M1.3636 12.032 l6.1765 0 l2.4866 9.4385 l2.5134 -9.4385 l5.508 0 l-0.026738 27.995 l-3.6631 0 l0 -20.535 l-4.3316 16.257 l0 0.026738 l0 -0.026738 l0 0.026738 l0 -0.026738 l-4.3048 -16.257 l0 20.535 l-3.6898 0 l0 -27.193 z M23.2887320855615 35.8021 l4.3316 0 l0 -19.545 l-5.4011 0 l1.0695 0.82888 l0 18.717 z M31.283032085561498 14.678999999999998 l0 22.701 c0 1.4973 -1.1497 2.6471 -2.6471 2.6471 l-6.3636 0 c-1.4973 0 -2.6471 -1.1497 -2.6471 -2.6471 l0 -22.701 c0 -1.4171 1.1497 -2.6471 2.6471 -2.6471 l6.3636 0 c1.4973 0 2.6471 1.2299 2.6471 2.6471 z M36.20322620320856 16.203 l-3.984 0 l0 -4.2513 l11.658 0 l0 4.2513 l-5.0802 0 l1.0963 0.80214 l0 22.968 l-3.6898 0 l0 -23.77 z M48.502635828877004 35.8021 l4.3316 0 l0 -19.545 l-5.4011 0 l1.0695 0.82888 l0 18.717 z M56.49693582887701 14.678999999999998 l0 22.701 c0 1.4973 -1.1497 2.6471 -2.6471 2.6471 l-6.3636 0 c-1.4973 0 -2.6471 -1.1497 -2.6471 -2.6471 l0 -22.701 c0 -1.4171 1.1497 -2.6471 2.6471 -2.6471 l6.3636 0 c1.4973 0 2.6471 1.2299 2.6471 2.6471 z M69.7059679144385 14.678999999999998 l0 7.1658 l-3.6631 0 l0 -5.5882 l-5.4011 0 l1.0695 0.82888 l0 18.717 l4.3316 0 l0 -11.07 l-1.0963 -0.82888 l4.7594 0 l0 16.123 l-9.0107 0 c-1.4973 0 -2.6471 -1.1497 -2.6471 -2.6471 l0 -22.701 c0 -1.4171 1.1497 -2.6471 2.6471 -2.6471 l6.3636 0 c1.4973 0 2.6471 1.2299 2.6471 2.6471 z M71.22990267379679 12.861 l-0.66845 -0.82888 l10.508 0 l0 4.2246 l-7.246 0 l1.0963 0.82888 l0 6.8182 l4.3316 0 l0 4.2513 l-5.4278 0 l1.0963 0.80214 l0 6.8449 l6.1497 0 l0 4.2246 l-9.8396 0 l0 -4.2246 l0 -7.6471 l0 -4.2513 l0 -11.043 z M86.44382513368984 31.604300000000002 l3.7701 0 l-1.8717 -15.348 z M81.71122513368984 40.053476 l3.3422 -27.193 l-0.66845 -0.80214 l7.139 0 l3.4492 27.995 l-3.7166 0 l-0.50802 -4.2246 l-5.9091 -0.026738 l0.9893 0.7754 l-0.42781 3.4759 l-3.6898 0 z M99.94651283422459 23.824 l4.3048 0 l0 -7.6738 l-5.4011 0 l1.0963 0.82888 l0 6.8449 z M107.91481283422459 14.599 l0 10.802 c0 1.4973 -1.1497 2.6471 -2.6471 2.6471 l-0.50802 0 l3.1551 11.898 l-3.7968 0 l-3.1551 -11.898 l-2.1123 0 l1.0963 0.82888 l0 11.07 l-3.6898 0 l0 -23.797 l0 -3.3957 l-0.66845 -0.82888 l9.6791 0.026738 c1.4973 0 2.6471 1.1497 2.6471 2.6471 z"/></g>
			</g>
		</svg>
	